<?xml version="1.0" standalone="no"?><!DOCTYPE svg PUBLIC "-//W3C//DTD SVG 1.1//EN" "http://www.w3.org/Graphics/SVG/1.1/DTD/svg11.dtd"><svg t="1613645865032" class="icon" viewBox="0 0 1024 1024" version="1.1" xmlns="http://www.w3.org/2000/svg" p-id="8120" xmlns:xlink="http://www.w3.org/1999/xlink" width="200" height="200"><defs><style type="text/css"></style></defs><path d="M487.21 848.66L359.39 695.18a32 32 0 0 1 0-41l127.92-153.53a32 32 0 0 1 49.18 0l127.82 153.48a32 32 0 0 1 0 41L536.39 848.66a32 32 0 0 1-49.18 0z m-25.15-173.95l49.74 59.72 49.83-59.82-49.74-59.73z" fill="#1AD8E2" p-id="8121"></path><path d="M927 710.17a452.48 452.48 0 0 0-240-240q-6.46-2.73-13-5.25c1.06-1 2.11-2 3.16-3.08a232.6 232.6 0 1 0-328.94 0c0.8 0.8 1.61 1.57 2.42 2.36q-7.46 2.85-14.85 6A450.76 450.76 0 0 0 60.32 885.77a48 48 0 0 0 96 0 355.09 355.09 0 0 1 710.18 0 48 48 0 0 0 96 0 448.38 448.38 0 0 0-35.5-175.6zM512.71 160.75c75.29 0 136.59 61.25 136.59 136.6S588 433.94 512.71 433.94s-136.6-61.28-136.6-136.59 61.28-136.6 136.6-136.6z" fill="#2C77E5" p-id="8122"></path></svg>