<?xml version="1.0" standalone="no"?><!DOCTYPE svg PUBLIC "-//W3C//DTD SVG 1.1//EN" "http://www.w3.org/Graphics/SVG/1.1/DTD/svg11.dtd"><svg t="1613645748605" class="icon" viewBox="0 0 1024 1024" version="1.1" xmlns="http://www.w3.org/2000/svg" p-id="4511" xmlns:xlink="http://www.w3.org/1999/xlink" width="200" height="200"><defs><style type="text/css"></style></defs><path d="M364.66176 769.57184c55.97696 0 101.35552 45.4912 101.35552 101.61152S420.63872 972.8 364.66176 972.8s-101.35552-45.49632-101.35552-101.61664c0-56.1152 45.37856-101.61152 101.35552-101.61152z m466.23232 0c55.97696 0 101.35552 45.4912 101.35552 101.61152S886.87104 972.8 830.89408 972.8s-101.35552-45.49632-101.35552-101.61664c0-56.1152 45.37856-101.61152 101.35552-101.61152z m-466.23232 40.64256c-33.5872 0-60.81536 27.29984-60.81536 60.96896 0 33.67424 27.22816 60.96896 60.81536 60.96896 33.5872 0 60.81024-27.29472 60.81024-60.96896 0-33.66912-27.22304-60.96896-60.81024-60.96896z m466.23232 0c-33.5872 0-60.81024 27.29984-60.81024 60.96896 0 33.67424 27.22304 60.96896 60.81024 60.96896 33.5872 0 60.81536-27.29472 60.81536-60.96896 0-33.66912-27.22816-60.96896-60.81536-60.96896zM141.68064 56.32a20.2752 20.2752 0 0 1 19.3792 14.3616l41.43104 135.3216v-5.47328h750.0288c12.96896 0 22.6048 12.04224 19.7888 24.7296l-81.08544 365.81376a20.28032 20.28032 0 0 1-19.7888 15.91296H325.2736l24.88832 81.29536h537.4976a20.29568 20.29568 0 0 1 20.27008 20.32128 20.29568 20.29568 0 0 1-20.2752 20.3264H335.1808a20.2752 20.2752 0 0 1-19.3792-14.3616L126.69952 96.96768H71.47008A20.29568 20.29568 0 0 1 51.2 76.64128 20.29568 20.29568 0 0 1 71.4752 56.32h70.20544z m171.14112 510.01856h542.35648l72.07424-325.16096-713.99424-0.00512 99.56352 325.16608z" p-id="4512"></path></svg>